<?xml version="1.0" encoding="utf-8"?>
<svg width="200" height="26" viewBox="0.537 0 146.028 26" fill="none" xmlns="http://www.w3.org/2000/svg" xmlns:bx="https://boxy-svg.com">
  <path d="M 42.737 19.938 C 41.617 19.938 40.617 19.757 39.737 19.395 C 38.858 19.022 38.165 18.486 37.659 17.787 C 37.153 17.088 36.894 16.257 36.882 15.293 L 39.719 15.293 C 39.743 16.064 40.014 16.655 40.532 17.064 C 41.051 17.462 41.773 17.661 42.701 17.661 C 43.424 17.661 43.96 17.528 44.31 17.263 C 44.671 16.986 44.852 16.618 44.852 16.161 C 44.852 15.775 44.737 15.468 44.508 15.239 C 44.292 14.998 43.99 14.805 43.605 14.661 C 43.231 14.516 42.677 14.341 41.942 14.136 L 41.581 14.028 C 40.701 13.775 39.96 13.51 39.358 13.233 C 38.767 12.944 38.279 12.558 37.894 12.076 C 37.52 11.594 37.334 10.986 37.334 10.251 C 37.334 8.998 37.767 8.058 38.635 7.432 C 39.514 6.793 40.683 6.474 42.141 6.474 C 43.141 6.474 44.033 6.642 44.816 6.98 C 45.611 7.305 46.237 7.787 46.695 8.425 C 47.165 9.052 47.418 9.793 47.454 10.648 L 44.635 10.648 C 44.539 10.034 44.28 9.564 43.858 9.239 C 43.448 8.913 42.876 8.751 42.141 8.751 C 41.526 8.751 41.045 8.859 40.695 9.076 C 40.358 9.293 40.189 9.618 40.189 10.052 C 40.189 10.401 40.286 10.685 40.478 10.901 C 40.671 11.106 40.936 11.275 41.273 11.407 C 41.611 11.54 42.117 11.703 42.792 11.895 C 43.9 12.209 44.773 12.498 45.412 12.763 C 46.063 13.016 46.605 13.395 47.039 13.901 C 47.484 14.408 47.707 15.082 47.707 15.926 C 47.707 17.142 47.274 18.118 46.406 18.853 C 45.539 19.576 44.316 19.938 42.737 19.938 Z M 59.862 10.142 C 60.79 10.142 61.507 10.426 62.013 10.992 C 62.519 11.546 62.772 12.335 62.772 13.359 L 62.772 19.667 L 60.278 19.667 L 60.278 14.118 C 60.278 13.42 60.176 12.926 59.971 12.636 C 59.778 12.335 59.405 12.184 58.85 12.184 C 58.308 12.184 57.88 12.359 57.567 12.709 C 57.254 13.058 57.097 13.558 57.097 14.209 L 57.097 19.667 L 54.621 19.667 L 54.621 14.118 C 54.621 13.42 54.525 12.926 54.332 12.636 C 54.139 12.335 53.766 12.184 53.212 12.184 C 52.67 12.184 52.242 12.359 51.929 12.709 C 51.615 13.058 51.459 13.558 51.459 14.209 L 51.459 19.667 L 48.983 19.667 L 48.983 10.432 L 51.459 10.432 L 51.459 11.697 L 51.495 11.697 C 51.772 11.251 52.151 10.883 52.633 10.594 C 53.115 10.293 53.682 10.142 54.332 10.142 C 54.935 10.142 55.441 10.287 55.85 10.576 C 56.272 10.865 56.573 11.263 56.754 11.769 L 56.79 11.769 C 57.224 11.239 57.676 10.835 58.145 10.558 C 58.615 10.281 59.188 10.142 59.862 10.142 Z M 67.027 19.938 C 66.123 19.938 65.401 19.697 64.858 19.215 C 64.316 18.721 64.045 18.07 64.045 17.263 C 64.045 16.347 64.358 15.667 64.985 15.221 C 65.623 14.763 66.533 14.414 67.714 14.173 C 67.81 14.148 68.105 14.088 68.599 13.992 C 69.093 13.895 69.467 13.757 69.72 13.576 C 69.973 13.383 70.099 13.148 70.099 12.871 C 70.099 12.558 69.985 12.317 69.756 12.148 C 69.527 11.968 69.166 11.877 68.672 11.877 C 68.057 11.877 67.605 11.998 67.316 12.239 C 67.039 12.48 66.876 12.859 66.828 13.377 L 64.443 13.377 C 64.491 12.414 64.87 11.63 65.581 11.028 C 66.292 10.426 67.358 10.124 68.78 10.124 C 69.985 10.124 70.907 10.407 71.545 10.974 C 72.184 11.528 72.503 12.444 72.503 13.721 L 72.503 17.552 C 72.503 17.841 72.527 18.052 72.575 18.185 C 72.636 18.305 72.738 18.365 72.883 18.365 C 72.967 18.365 73.045 18.359 73.117 18.347 L 73.117 19.612 C 72.599 19.709 72.154 19.757 71.78 19.757 C 71.262 19.757 70.876 19.655 70.623 19.45 C 70.37 19.245 70.214 18.92 70.154 18.474 L 70.117 18.474 C 69.792 18.92 69.364 19.275 68.834 19.54 C 68.304 19.805 67.702 19.938 67.027 19.938 Z M 67.931 18.167 C 68.581 18.167 69.105 17.962 69.503 17.552 C 69.901 17.142 70.099 16.618 70.099 15.98 L 70.099 15.004 C 69.846 15.136 69.268 15.311 68.364 15.528 C 67.726 15.661 67.268 15.847 66.991 16.088 C 66.726 16.317 66.593 16.63 66.593 17.028 C 66.593 17.787 67.039 18.167 67.931 18.167 Z M 79.294 10.305 C 79.631 10.305 79.902 10.323 80.107 10.359 L 80.107 12.582 C 79.866 12.546 79.667 12.528 79.511 12.528 C 78.776 12.528 78.155 12.769 77.649 13.251 C 77.155 13.721 76.908 14.365 76.908 15.185 L 76.908 19.667 L 74.432 19.667 L 74.432 10.432 L 76.908 10.432 L 76.908 12.022 L 76.944 12.022 C 77.185 11.48 77.505 11.058 77.902 10.757 C 78.3 10.456 78.764 10.305 79.294 10.305 Z M 85.278 17.914 C 85.494 17.914 85.753 17.889 86.055 17.841 L 86.055 19.649 C 85.525 19.769 85.025 19.829 84.555 19.829 C 83.615 19.829 82.922 19.6 82.476 19.142 C 82.043 18.673 81.826 17.895 81.826 16.811 L 81.826 12.329 L 80.524 12.329 L 80.524 10.432 L 81.826 10.432 L 81.826 7.703 L 84.302 7.703 L 84.302 10.432 L 85.964 10.432 L 85.964 12.329 L 84.302 12.329 L 84.302 16.793 C 84.302 17.251 84.374 17.552 84.518 17.697 C 84.675 17.841 84.928 17.914 85.278 17.914 Z M 95.932 19.667 L 93.095 19.667 L 89.824 6.745 L 92.643 6.745 L 94.541 16.034 L 94.577 16.034 L 96.836 6.745 L 99.547 6.745 L 101.806 16.034 L 101.842 16.034 L 103.721 6.745 L 106.541 6.745 L 103.27 19.667 L 100.432 19.667 L 98.209 10.739 L 98.173 10.739 L 95.932 19.667 Z M 109.243 19.938 C 108.339 19.938 107.617 19.697 107.074 19.215 C 106.532 18.721 106.261 18.07 106.261 17.263 C 106.261 16.347 106.574 15.667 107.201 15.221 C 107.839 14.763 108.749 14.414 109.93 14.173 C 110.026 14.148 110.321 14.088 110.815 13.992 C 111.309 13.895 111.683 13.757 111.936 13.576 C 112.189 13.383 112.315 13.148 112.315 12.871 C 112.315 12.558 112.201 12.317 111.972 12.148 C 111.743 11.968 111.382 11.877 110.888 11.877 C 110.273 11.877 109.821 11.998 109.532 12.239 C 109.255 12.48 109.092 12.859 109.044 13.377 L 106.659 13.377 C 106.707 12.414 107.086 11.63 107.797 11.028 C 108.508 10.426 109.574 10.124 110.996 10.124 C 112.201 10.124 113.123 10.407 113.761 10.974 C 114.4 11.528 114.719 12.444 114.719 13.721 L 114.719 17.552 C 114.719 17.841 114.743 18.052 114.791 18.185 C 114.852 18.305 114.954 18.365 115.098 18.365 C 115.183 18.365 115.261 18.359 115.333 18.347 L 115.333 19.612 C 114.815 19.709 114.37 19.757 113.996 19.757 C 113.478 19.757 113.092 19.655 112.839 19.45 C 112.586 19.245 112.43 18.92 112.37 18.474 L 112.333 18.474 C 112.008 18.92 111.58 19.275 111.05 19.54 C 110.52 19.805 109.918 19.938 109.243 19.938 Z M 110.147 18.167 C 110.797 18.167 111.321 17.962 111.719 17.552 C 112.117 17.142 112.315 16.618 112.315 15.98 L 112.315 15.004 C 112.062 15.136 111.484 15.311 110.58 15.528 C 109.942 15.661 109.484 15.847 109.207 16.088 C 108.942 16.317 108.809 16.63 108.809 17.028 C 108.809 17.787 109.255 18.167 110.147 18.167 Z M 119.124 19.667 L 116.648 19.667 L 116.648 6.745 L 119.124 6.745 L 119.124 19.667 Z M 123.342 19.667 L 120.866 19.667 L 120.866 6.745 L 123.342 6.745 L 123.342 19.667 Z M 133.976 15.709 L 127.163 15.709 C 127.175 16.395 127.386 16.962 127.795 17.408 C 128.217 17.841 128.765 18.058 129.44 18.058 C 130.006 18.058 130.44 17.938 130.741 17.697 C 131.054 17.456 131.265 17.173 131.374 16.847 L 133.886 16.847 C 133.621 17.811 133.109 18.57 132.35 19.124 C 131.591 19.679 130.597 19.956 129.368 19.956 C 128.404 19.956 127.566 19.751 126.856 19.341 C 126.145 18.92 125.603 18.341 125.229 17.606 C 124.856 16.859 124.669 16.004 124.669 15.04 C 124.669 14.1 124.856 13.263 125.229 12.528 C 125.603 11.781 126.139 11.197 126.838 10.775 C 127.548 10.341 128.392 10.124 129.368 10.124 C 130.862 10.124 132 10.564 132.783 11.444 C 133.579 12.323 133.976 13.57 133.976 15.185 L 133.976 15.709 Z M 131.464 14.064 C 131.464 13.426 131.271 12.92 130.886 12.546 C 130.512 12.173 130 11.986 129.35 11.986 C 128.735 11.986 128.229 12.173 127.831 12.546 C 127.434 12.907 127.211 13.414 127.163 14.064 L 131.464 14.064 Z M 139.283 17.914 C 139.5 17.914 139.759 17.889 140.06 17.841 L 140.06 19.649 C 139.53 19.769 139.03 19.829 138.56 19.829 C 137.62 19.829 136.927 19.6 136.482 19.142 C 136.048 18.673 135.831 17.895 135.831 16.811 L 135.831 12.329 L 134.53 12.329 L 134.53 10.432 L 135.831 10.432 L 135.831 7.703 L 138.307 7.703 L 138.307 10.432 L 139.97 10.432 L 139.97 12.329 L 138.307 12.329 L 138.307 16.793 C 138.307 17.251 138.379 17.552 138.524 17.697 C 138.68 17.841 138.933 17.914 139.283 17.914 Z" fill="black" id="object-1"/>
  <path d="M 18.537 26 C 25.717 26 31.537 20.18 31.537 13 C 31.537 5.82 25.717 0 18.537 0 C 11.358 0 5.537 5.82 5.537 13 C 5.537 20.18 11.358 26 18.537 26 Z" fill="#FF90C1" id="object-2"/>
  <path d="M 18.537 26 C 25.717 26 31.537 20.18 31.537 13 C 31.537 5.82 25.717 0 18.537 0 C 11.358 0 5.537 5.82 5.537 13 C 5.537 20.18 11.358 26 18.537 26 Z" fill="url(#paint0_linear_7734_3134)" id="object-0"/>
  <path fill-rule="evenodd" clip-rule="evenodd" d="M 21.811 5.481 C 22.054 5.646 22.2 5.921 22.2 6.215 L 22.2 8.865 L 22.889 8.865 C 24.075 8.865 25.036 9.826 25.036 11.011 L 25.036 17.06 C 25.036 18.384 23.962 19.458 22.637 19.458 L 14.32 19.458 C 12.996 19.458 11.922 18.384 11.922 17.06 L 11.919 9.756 C 11.92 9.493 12.035 9.313 12.077 9.252 C 12.13 9.176 12.183 9.124 12.211 9.098 C 12.267 9.046 12.32 9.011 12.343 8.996 C 12.396 8.961 12.451 8.931 12.489 8.911 C 12.573 8.867 12.682 8.815 12.802 8.76 C 13.046 8.648 13.388 8.5 13.789 8.33 C 14.592 7.988 15.661 7.548 16.725 7.113 C 17.79 6.678 18.855 6.248 19.654 5.927 C 20.053 5.766 20.386 5.632 20.618 5.539 L 20.984 5.392 C 20.985 5.392 20.985 5.392 21.314 6.215 L 20.984 5.392 C 21.258 5.283 21.567 5.316 21.811 5.481 Z M 20.428 7.526 C 20.391 7.541 20.354 7.556 20.316 7.571 C 19.519 7.892 18.457 8.321 17.395 8.754 C 17.305 8.791 17.215 8.828 17.125 8.865 L 20.428 8.865 L 20.428 7.526 Z M 13.692 10.637 L 22.889 10.637 C 23.096 10.637 23.263 10.805 23.263 11.011 L 23.263 17.06 C 23.263 17.405 22.983 17.685 22.637 17.685 L 14.32 17.685 C 13.975 17.685 13.695 17.405 13.695 17.06 L 13.692 10.637 Z M 21.762 13.399 C 22.108 13.745 22.108 14.306 21.762 14.652 L 21.752 14.662 C 21.406 15.008 20.844 15.008 20.498 14.662 C 20.152 14.316 20.152 13.755 20.498 13.409 L 20.508 13.399 C 20.854 13.053 21.415 13.053 21.762 13.399 Z" fill="url(#paint1_linear_7734_3134)" id="object-3"/>
  <defs>
    <linearGradient id="paint0_linear_7734_3134" x1="0.537354" y1="0" x2="27.782" y2="24.6228" gradientUnits="userSpaceOnUse" gradientTransform="matrix(1, 0, 0, 1, 5, 0)">
      <stop stop-color="#FF9C27"/>
      <stop offset="1" stop-color="#FD48CE"/>
    </linearGradient>
    <linearGradient id="paint1_linear_7734_3134" x1="13.4774" y1="5.32861" x2="33.2306" y2="15.9514" gradientUnits="userSpaceOnUse" gradientTransform="matrix(1, 0, 0, 1, 5, 0)">
      <stop offset="0.1667" stop-color="white"/>
      <stop offset="1" stop-color="white" stop-opacity="0.5"/>
    </linearGradient>
    <bx:export>
      <bx:file format="svg" href="#object-1"/>
      <bx:file format="svg" href="#object-2" path="Untitled 2.svg"/>
      <bx:file format="svg" href="#object-0" path="Untitled 3.svg"/>
      <bx:file format="svg" href="#object-3" path="Untitled 4.svg"/>
    </bx:export>
  </defs>
</svg>